<svg id="Layer_1" data-name="Layer 1" xmlns="http://www.w3.org/2000/svg" xmlns:xlink="http://www.w3.org/1999/xlink" viewBox="0 0 237.56 85.03"><defs><style>.cls-1{fill:url(#linear-gradient);}.cls-2{fill:url(#linear-gradient-2);}.cls-3{fill:url(#linear-gradient-3);}.cls-4{fill:url(#linear-gradient-4);}.cls-5{fill:url(#linear-gradient-5);}.cls-6{fill:url(#linear-gradient-6);}.cls-7{fill:url(#linear-gradient-7);}.cls-8{fill:url(#linear-gradient-8);}.cls-9{fill:url(#linear-gradient-9);}.cls-10{fill:url(#linear-gradient-10);}.cls-11{fill:url(#linear-gradient-11);}.cls-12{fill:url(#linear-gradient-12);}.cls-13{fill:url(#linear-gradient-13);}.cls-14{fill:url(#linear-gradient-14);}.cls-15{fill:url(#linear-gradient-15);}.cls-16{fill:url(#linear-gradient-16);}.cls-17{fill:url(#linear-gradient-17);}.cls-18{fill:none;}.cls-19{fill:url(#linear-gradient-18);}.cls-20{fill:url(#linear-gradient-19);}.cls-21{fill:url(#linear-gradient-20);}.cls-22{fill:url(#linear-gradient-21);}.cls-23{fill:url(#linear-gradient-22);}</style><linearGradient id="linear-gradient" x1="17.39" y1="-69.68" x2="189.56" y2="177.36" gradientUnits="userSpaceOnUse"><stop offset="0.17" stop-color="#0068ff"/><stop offset="0.3" stop-color="#00c3ff"/><stop offset="0.49" stop-color="#43dcff"/><stop offset="0.69" stop-color="#00c3ff"/><stop offset="1" stop-color="#0068ff"/></linearGradient><linearGradient id="linear-gradient-2" x1="9.35" y1="42.89" x2="102.46" y2="13.1" gradientUnits="userSpaceOnUse"><stop offset="0" stop-color="#5b595a"/><stop offset="0.36" stop-color="#fff"/><stop offset="0.51" stop-color="#fff"/><stop offset="1" stop-color="#5b595a"/></linearGradient><linearGradient id="linear-gradient-3" x1="104.42" y1="13.47" x2="248.29" y2="-0.57" xlink:href="#linear-gradient-2"/><linearGradient id="linear-gradient-4" x1="156.97" y1="97.57" x2="226.53" y2="-29.7" gradientUnits="userSpaceOnUse"><stop offset="0" stop-color="#0068ff"/><stop offset="0.29" stop-color="#00c3ff"/><stop offset="0.49" stop-color="#43dcff"/><stop offset="0.69" stop-color="#00c3ff"/><stop offset="1" stop-color="#0068ff"/></linearGradient><linearGradient id="linear-gradient-5" x1="134.73" y1="50" x2="148.54" y2="-16.2" xlink:href="#linear-gradient-2"/><linearGradient id="linear-gradient-6" x1="140.13" y1="51.13" x2="153.93" y2="-15.08" xlink:href="#linear-gradient-2"/><linearGradient id="linear-gradient-7" x1="145.52" y1="52.25" x2="159.32" y2="-13.96" xlink:href="#linear-gradient-2"/><linearGradient id="linear-gradient-8" x1="151.02" y1="53.39" x2="164.82" y2="-12.81" xlink:href="#linear-gradient-2"/><linearGradient id="linear-gradient-9" x1="156.54" y1="54.55" x2="170.34" y2="-11.66" xlink:href="#linear-gradient-2"/><linearGradient id="linear-gradient-10" x1="162.17" y1="55.72" x2="175.97" y2="-10.49" xlink:href="#linear-gradient-2"/><linearGradient id="linear-gradient-11" x1="50.49" y1="112.57" x2="91.04" y2="3.09" xlink:href="#linear-gradient-2"/><linearGradient id="linear-gradient-12" x1="83.53" y1="107.68" x2="90.71" y2="37.5" xlink:href="#linear-gradient"/><linearGradient id="linear-gradient-13" x1="90.56" y1="127.41" x2="131.11" y2="17.93" xlink:href="#linear-gradient-2"/><linearGradient id="linear-gradient-14" x1="110.97" y1="134.97" x2="151.52" y2="25.49" xlink:href="#linear-gradient-2"/><linearGradient id="linear-gradient-15" x1="131.47" y1="142.56" x2="172.02" y2="33.08" xlink:href="#linear-gradient-2"/><linearGradient id="linear-gradient-16" x1="152.39" y1="150.31" x2="192.94" y2="40.83" xlink:href="#linear-gradient-2"/><linearGradient id="linear-gradient-17" x1="14.5" y1="61.54" x2="170.07" y2="25.74" xlink:href="#linear-gradient-2"/><linearGradient id="linear-gradient-18" x1="8.19" y1="-80.52" x2="119.24" y2="75.13" xlink:href="#linear-gradient-4"/><linearGradient id="linear-gradient-19" x1="158.82" y1="-16.86" x2="200.31" y2="49.57" xlink:href="#linear-gradient-4"/><linearGradient id="linear-gradient-20" x1="9.25" y1="98.56" x2="115.93" y2="21.59" xlink:href="#linear-gradient-2"/><linearGradient id="linear-gradient-21" x1="128.34" y1="-41.63" x2="176.53" y2="36.98" xlink:href="#linear-gradient-2"/><linearGradient id="linear-gradient-22" x1="94.03" y1="7.06" x2="35.39" y2="46.98" xlink:href="#linear-gradient-2"/></defs><polygon class="cls-1" points="158.25 37.81 157.64 38.42 155.25 40.82 151.21 44.85 139.61 56.45 133.32 56.45 129.79 52.93 91.92 15.13 15.13 15.13 0 0 97.59 0 135.4 37.81 158.25 37.81"/><polygon class="cls-2" points="89.73 29.67 85.99 33.62 33.62 33.62 29.74 29.74 29.74 29.74 23.2 23.21 83.43 23.21 89.73 29.67"/><polygon class="cls-3" points="207.07 0 199.44 7.64 199.44 7.64 191.95 15.13 165.41 15.13 165.41 15.12 155.25 15.12 155.25 15.13 135.4 15.13 128.39 22.13 123.4 17.02 118.63 12.13 129.72 0 207.07 0"/><polygon class="cls-4" points="194.08 34.03 184.69 43.41 202.58 43.41 189.31 56.76 171.27 56.76 171.27 56.72 152.05 56.72 186.37 22.39 194.44 22.68 215.99 0.78 216.54 0.22 216.76 0 237.56 0 203.53 34.03 194.08 34.03"/><path class="cls-5" d="M142.4,24.08v1.09H137V24.08Zm0,1.73v.88H137v-.89Zm0,1.54v1.08H137V27.35Z"/><path class="cls-6" d="M148.05,28.43h-1.47l-1.27-1.37-1.26,1.37h-1.48l2-2.18.74-.8,1.26-1.37H148l-2,2.17Zm-3.88-2.62-1.59-1.73h1.48l.85.93C144.66,25.28,144.42,25.55,144.17,25.81Z"/><path class="cls-7" d="M153.66,24.08v1.09h-5.44V24.08Zm0,1.73v.88h-5.44v-.89Zm0,1.54v1.08h-5.44V27.35Z"/><path class="cls-8" d="M159.39,24.08v1.09H154V24.08Zm-3.11,3.27h3.11v1.08H154v-.79l.42-.29,2.26-1.59h1.9Z"/><path class="cls-9" d="M165.15,24.08v1.09h-5.44V24.08Zm0,1.73v.88h-5.44v-.89Zm0,1.54v1.08h-5.44V27.35Z"/><path class="cls-10" d="M171,24.08v4.35h-1.32l-3-3v3h-1.09V24.08h1.31l3,3v-3Z"/><path class="cls-11" d="M75,67.41v4.41h-22V67.41Zm0,7V78h-22V74.4Zm0,6.23V85h-22v-4.4Z"/><path class="cls-12" d="M97.83,85h-6l-5.12-5.57L81.6,85h-6l8.11-8.83,3-3.25,5.08-5.54h6L89.72,76.2ZM82.11,74.43l-6.45-7h6l3.46,3.76Z"/><path class="cls-13" d="M120.53,67.41v4.41h-22V67.41Zm0,7V78h-22V74.4Zm0,6.23V85h-22v-4.4Z"/><path class="cls-14" d="M143.74,67.41v4.41h-22V67.41ZM131.12,80.63h12.62V85h-22v-3.2l1.72-1.2,9.17-6.41h7.68Z"/><path class="cls-15" d="M167.05,67.41v4.41H145V67.41Zm0,7V78H145V74.4Zm0,6.23V85H145v-4.4Z"/><path class="cls-16" d="M190.85,67.41V85h-5.34L173.22,72.75V85h-4.4V67.41h5.3l12.32,12.32V67.41Z"/><polygon class="cls-17" points="110.06 42.83 97.83 56.22 97.59 56.45 56.45 56.45 48.57 48.57 41.33 41.33 91.92 41.33 95.3 37.95 100.19 32.64 105.08 37.68 110.06 42.83"/><line class="cls-18" x1="129.72" x2="118.63" y2="12.13"/><polygon class="cls-19" points="158.25 37.81 157.64 38.42 155.25 40.82 151.21 44.85 139.61 56.45 133.32 56.45 129.79 52.93 91.92 15.13 15.13 15.13 0 0 17.92 11.07 93.6 11.07 134.07 50.68 139.68 50.68 158.25 37.81"/><polygon class="cls-20" points="188.33 51.36 202.58 43.41 189.31 56.76 171.27 56.76 171.27 56.72 152.05 56.72 186.37 22.39 194.44 22.68 215.99 0.78 216.54 0.22 216.76 0 222.07 0 196.18 27.89 188.07 27.89 165.59 51.36 188.33 51.36"/><polygon class="cls-21" points="110.06 42.83 97.83 56.22 97.59 56.45 56.45 56.45 48.57 48.57 48.57 48.57 94.67 48.57 105.08 37.68 110.06 42.83"/><polygon class="cls-22" points="199.44 7.64 199.44 7.64 191.95 15.13 165.41 15.13 165.41 15.12 155.25 15.12 155.25 15.13 135.4 15.13 128.39 22.13 123.4 17.02 132.73 7.64 199.44 7.64"/><polygon class="cls-23" points="89.73 29.67 85.99 33.62 33.62 33.62 29.74 29.74 89.73 29.67"/></svg>