<svg id="Layer_1" data-name="Layer 1" xmlns="http://www.w3.org/2000/svg" xmlns:xlink="http://www.w3.org/1999/xlink" viewBox="0 0 315.3 123.11"><defs><style>.cls-1{fill:#1b1c23;}.cls-2,.cls-3{fill:#fff;}.cls-3{opacity:0;}.cls-4{fill:url(#linear-gradient);}.cls-5{fill:url(#linear-gradient-2);}.cls-6{fill:url(#linear-gradient-3);}.cls-7{fill:url(#linear-gradient-4);}.cls-8{fill:url(#linear-gradient-5);}.cls-9{fill:url(#linear-gradient-6);}.cls-10{fill:url(#linear-gradient-7);}.cls-11{fill:url(#linear-gradient-8);}.cls-12{fill:url(#linear-gradient-9);}.cls-13{fill:url(#linear-gradient-10);}.cls-14{fill:url(#linear-gradient-11);}.cls-15{fill:url(#linear-gradient-12);}.cls-16{fill:url(#linear-gradient-13);}.cls-17{fill:url(#linear-gradient-14);}.cls-18{fill:url(#linear-gradient-15);}.cls-19{fill:url(#linear-gradient-16);}.cls-20{fill:url(#linear-gradient-17);}.cls-21{fill:none;}.cls-22{fill:url(#linear-gradient-18);}.cls-23{fill:url(#linear-gradient-19);}.cls-24{fill:url(#linear-gradient-20);}.cls-25{fill:url(#linear-gradient-21);}.cls-26{fill:url(#linear-gradient-22);}</style><linearGradient id="linear-gradient" x1="56.52" y1="-50.05" x2="228.7" y2="196.99" gradientUnits="userSpaceOnUse"><stop offset="0.17" stop-color="#0068ff"/><stop offset="0.3" stop-color="#00c3ff"/><stop offset="0.49" stop-color="#43dcff"/><stop offset="0.69" stop-color="#00c3ff"/><stop offset="1" stop-color="#0068ff"/></linearGradient><linearGradient id="linear-gradient-2" x1="48.48" y1="62.51" x2="141.59" y2="32.73" gradientUnits="userSpaceOnUse"><stop offset="0" stop-color="#5b595a"/><stop offset="0.36" stop-color="#fff"/><stop offset="0.51" stop-color="#fff"/><stop offset="1" stop-color="#5b595a"/></linearGradient><linearGradient id="linear-gradient-3" x1="143.55" y1="33.09" x2="287.43" y2="19.06" xlink:href="#linear-gradient-2"/><linearGradient id="linear-gradient-4" x1="196.11" y1="117.19" x2="265.67" y2="-10.07" gradientUnits="userSpaceOnUse"><stop offset="0" stop-color="#0068ff"/><stop offset="0.29" stop-color="#00c3ff"/><stop offset="0.49" stop-color="#43dcff"/><stop offset="0.69" stop-color="#00c3ff"/><stop offset="1" stop-color="#0068ff"/></linearGradient><linearGradient id="linear-gradient-5" x1="173.87" y1="69.62" x2="187.67" y2="3.42" xlink:href="#linear-gradient-2"/><linearGradient id="linear-gradient-6" x1="179.27" y1="70.75" x2="193.07" y2="4.55" xlink:href="#linear-gradient-2"/><linearGradient id="linear-gradient-7" x1="184.66" y1="71.87" x2="198.46" y2="5.67" xlink:href="#linear-gradient-2"/><linearGradient id="linear-gradient-8" x1="190.15" y1="73.02" x2="203.96" y2="6.81" xlink:href="#linear-gradient-2"/><linearGradient id="linear-gradient-9" x1="195.67" y1="74.17" x2="209.48" y2="7.97" xlink:href="#linear-gradient-2"/><linearGradient id="linear-gradient-10" x1="201.31" y1="75.34" x2="215.11" y2="9.14" xlink:href="#linear-gradient-2"/><linearGradient id="linear-gradient-11" x1="89.62" y1="132.19" x2="130.17" y2="22.71" xlink:href="#linear-gradient-2"/><linearGradient id="linear-gradient-12" x1="122.67" y1="127.3" x2="129.84" y2="57.12" xlink:href="#linear-gradient"/><linearGradient id="linear-gradient-13" x1="129.69" y1="147.03" x2="170.24" y2="37.55" xlink:href="#linear-gradient-2"/><linearGradient id="linear-gradient-14" x1="150.11" y1="154.59" x2="190.66" y2="45.11" xlink:href="#linear-gradient-2"/><linearGradient id="linear-gradient-15" x1="170.61" y1="162.19" x2="211.16" y2="52.7" xlink:href="#linear-gradient-2"/><linearGradient id="linear-gradient-16" x1="191.53" y1="169.94" x2="232.08" y2="60.45" xlink:href="#linear-gradient-2"/><linearGradient id="linear-gradient-17" x1="53.64" y1="81.16" x2="209.21" y2="45.37" xlink:href="#linear-gradient-2"/><linearGradient id="linear-gradient-18" x1="47.33" y1="-60.89" x2="158.37" y2="94.75" xlink:href="#linear-gradient-4"/><linearGradient id="linear-gradient-19" x1="197.96" y1="2.76" x2="239.44" y2="69.2" xlink:href="#linear-gradient-4"/><linearGradient id="linear-gradient-20" x1="48.39" y1="118.19" x2="155.07" y2="41.22" xlink:href="#linear-gradient-2"/><linearGradient id="linear-gradient-21" x1="167.48" y1="-22" x2="215.67" y2="56.6" xlink:href="#linear-gradient-2"/><linearGradient id="linear-gradient-22" x1="133.16" y1="26.68" x2="74.52" y2="66.61" xlink:href="#linear-gradient-2"/></defs><polygon class="cls-1" points="315.3 0 261.17 93.77 244.23 123.11 71.07 123.11 54.13 93.77 0 0 315.3 0"/><polygon class="cls-2" points="157.5 31.74 168.61 19.55 246.22 19.55 231 34.75 174.31 34.75 167.29 41.76 157.5 31.74"/><polygon class="cls-3" points="255.84 19.55 276.69 19.55 242.6 53.67 233.15 53.67 223.7 63.08 241.63 63.08 228.34 76.47 190.96 76.47 225.4 41.98 233.47 42.29 255.84 19.55"/><polygon class="cls-4" points="197.39 57.43 196.78 58.05 194.38 60.44 190.34 64.48 178.75 76.08 172.46 76.08 168.93 72.56 131.05 34.75 54.26 34.75 39.14 19.63 136.72 19.63 174.53 57.43 197.39 57.43"/><polygon class="cls-5" points="128.87 49.29 125.12 53.25 72.76 53.25 68.88 49.36 68.88 49.36 62.34 42.83 122.57 42.83 128.87 49.29"/><polygon class="cls-6" points="246.21 19.63 238.57 27.26 238.57 27.27 231.09 34.75 204.55 34.75 204.55 34.74 194.38 34.74 194.38 34.75 174.53 34.75 167.53 41.76 162.54 36.64 157.77 31.75 168.86 19.63 246.21 19.63"/><polygon class="cls-7" points="233.21 53.65 223.83 63.04 241.72 63.04 228.44 76.38 210.41 76.38 210.41 76.34 191.18 76.34 225.5 42.02 233.58 42.3 255.13 20.41 255.68 19.85 255.9 19.63 276.69 19.63 242.66 53.65 233.21 53.65"/><path class="cls-8" d="M181.54,43.71v1.08H176.1V43.71Zm0,1.72v.89H176.1v-.89Zm0,1.54v1.09H176.1V47Z"/><path class="cls-9" d="M187.19,48.06h-1.48l-1.26-1.38-1.27,1.38H181.7l2-2.18.74-.81,1.25-1.36h1.48l-2,2.17Zm-3.88-2.62-1.6-1.73h1.48l.86.93C183.8,44.9,183.55,45.17,183.31,45.44Z"/><path class="cls-10" d="M192.8,43.71v1.08h-5.44V43.71Zm0,1.72v.89h-5.44v-.89Zm0,1.54v1.09h-5.44V47Z"/><path class="cls-11" d="M198.53,43.71v1.08h-5.44V43.71ZM195.41,47h3.12v1.09h-5.44v-.79l.42-.3,2.27-1.58h1.9Z"/><path class="cls-12" d="M204.29,43.71v1.08h-5.44V43.71Zm0,1.72v.89h-5.44v-.89Zm0,1.54v1.09h-5.44V47Z"/><path class="cls-13" d="M210.17,43.71v4.35h-1.32l-3-3v3h-1.09V43.71H206l3,3v-3Z"/><path class="cls-14" d="M114.1,87v4.4h-22V87Zm0,7v3.59h-22V94Zm0,6.23v4.41h-22v-4.41Z"/><path class="cls-15" d="M137,104.66h-6l-5.13-5.58-5.12,5.58h-6l8.12-8.83,3-3.26L131,87h6l-8.08,8.79ZM121.24,94.05l-6.45-7h6l3.45,3.76Z"/><path class="cls-16" d="M159.67,87v4.4h-22V87Zm0,7v3.59h-22V94Zm0,6.23v4.41h-22v-4.41Z"/><path class="cls-17" d="M182.88,87v4.4h0l0,0h-7.69l0,0H160.85V87Zm-12.63,13.21h12.63v4.41h-22v-3.21l1.71-1.2,9.17-6.4h7.69Z"/><path class="cls-18" d="M206.19,87v4.4h-22V87Zm0,7v3.59h-22V94Zm0,6.23v4.41h-22v-4.41Z"/><path class="cls-19" d="M230,87v17.62h-5.33L212.36,92.37v12.29H208V87h5.31l12.32,12.32V87Z"/><polygon class="cls-20" points="149.19 62.45 136.96 75.85 136.72 76.08 95.59 76.08 87.71 68.19 80.47 60.95 131.05 60.95 134.44 57.57 139.33 52.26 144.22 57.31 149.19 62.45"/><line class="cls-21" x1="168.86" y1="19.62" x2="157.77" y2="31.75"/><polygon class="cls-22" points="197.39 57.43 196.78 58.05 194.38 60.44 190.34 64.48 178.75 76.08 172.46 76.08 168.93 72.56 131.05 34.75 54.26 34.75 39.14 19.63 57.05 30.69 132.73 30.69 173.21 70.31 178.82 70.31 197.39 57.43"/><polygon class="cls-23" points="227.47 70.98 241.72 63.04 228.44 76.38 210.41 76.38 210.41 76.34 191.18 76.34 225.5 42.02 233.58 42.3 255.13 20.41 255.68 19.85 255.9 19.63 261.21 19.63 235.32 47.51 227.21 47.51 204.73 70.98 227.47 70.98"/><polygon class="cls-24" points="149.19 62.45 136.96 75.85 136.72 76.08 95.59 76.08 87.71 68.19 87.71 68.19 133.81 68.19 144.22 57.31 149.19 62.45"/><polygon class="cls-25" points="238.57 27.26 238.57 27.27 231.09 34.75 204.55 34.75 204.55 34.74 194.38 34.74 194.38 34.75 174.53 34.75 167.53 41.76 162.54 36.64 171.87 27.26 238.57 27.26"/><polygon class="cls-26" points="128.87 49.29 125.12 53.25 72.76 53.25 68.88 49.36 128.87 49.29"/></svg>